<?xml version="1.0" encoding="UTF-8"?>
<!DOCTYPE svg PUBLIC "-//W3C//DTD SVG 1.1//EN" "http://www.w3.org/Graphics/SVG/1.1/DTD/svg11.dtd">
<svg xmlns="http://www.w3.org/2000/svg" version="1.1" width="235px" height="174px" style="shape-rendering:geometricPrecision; text-rendering:geometricPrecision; image-rendering:optimizeQuality; fill-rule:evenodd; clip-rule:evenodd" xmlns:xlink="http://www.w3.org/1999/xlink">
<g><path style="opacity:1" fill="#e2e5ea" d="M -0.5,-0.5 C 77.8333,-0.5 156.167,-0.5 234.5,-0.5C 234.5,57.5 234.5,115.5 234.5,173.5C 156.167,173.5 77.8333,173.5 -0.5,173.5C -0.5,115.5 -0.5,57.5 -0.5,-0.5 Z"/></g>
<g><path style="opacity:1" fill="#cbd1d9" d="M 160.5,53.5 C 160.5,53.8333 160.5,54.1667 160.5,54.5C 129.493,54.1668 98.4928,54.5002 67.5,55.5C 66.5117,76.1207 66.1784,96.7874 66.5,117.5C 65.5027,96.3399 65.1694,75.0065 65.5,53.5C 97.1667,53.5 128.833,53.5 160.5,53.5 Z"/></g>
<g><path style="opacity:1" fill="#c2ccd5" d="M 160.5,54.5 C 161.308,58.0295 162.308,61.5295 163.5,65C 162.926,66.6067 162.26,68.1067 161.5,69.5C 161.5,83.5 161.5,97.5 161.5,111.5C 160.624,111.369 159.957,111.702 159.5,112.5C 160.263,113.719 161.263,114.719 162.5,115.5C 158.687,116.167 155.021,116.834 151.5,117.5C 123.167,117.5 94.8333,117.5 66.5,117.5C 66.1784,96.7874 66.5117,76.1207 67.5,55.5C 98.4928,54.5002 129.493,54.1668 160.5,54.5 Z"/></g>
<g><path style="opacity:1" fill="#c1cbd5" d="M 151.5,60.5 C 135.833,61.8333 120.167,61.8333 104.5,60.5C 99.1563,60.666 93.8229,60.4994 88.5,60C 91.0444,58.908 93.7111,58.2414 96.5,58C 94.5,57.6667 92.5,57.3333 90.5,57C 113.507,56.1669 136.507,56.3335 159.5,57.5C 151.554,57.6154 143.554,57.7821 135.5,58C 140.833,58.3333 146.167,58.6667 151.5,59C 152.738,59.69 152.738,60.19 151.5,60.5 Z"/></g>
<g><path style="opacity:1" fill="#c2cbd2" d="M 104.5,60.5 C 120.167,61.8333 135.833,61.8333 151.5,60.5C 151.833,61.1667 152.167,61.8333 152.5,62.5C 127.833,62.5 103.167,62.5 78.5,62.5C 78.1667,62.5 77.8333,62.5 77.5,62.5C 86.5,61.8333 95.5,61.1667 104.5,60.5 Z"/></g>
<g><path style="opacity:1" fill="#e1e4ea" d="M 152.5,63.5 C 152.5,78.5 152.5,93.5 152.5,108.5C 149.5,108.5 146.5,108.5 143.5,108.5C 138.015,107.673 132.348,107.173 126.5,107C 132.167,106.667 137.833,106.333 143.5,106C 144.416,105.722 145.082,105.222 145.5,104.5C 147.456,98.588 148.123,92.2547 147.5,85.5C 145.302,85.1201 143.635,85.7868 142.5,87.5C 142.158,88.3382 141.492,88.6716 140.5,88.5C 138.973,88.427 137.973,89.0937 137.5,90.5C 137.167,90.5 136.833,90.5 136.5,90.5C 134.973,90.427 133.973,91.0937 133.5,92.5C 131.689,93.822 129.689,94.322 127.5,94C 119.859,87.0283 112.193,80.0283 104.5,73C 101.989,72.761 100.323,73.9277 99.5,76.5C 98.1667,76.5 96.8333,76.5 95.5,76.5C 95.6495,77.552 95.4828,78.552 95,79.5C 93.3339,82.4385 91.0006,84.7719 88,86.5C 87.1561,89.678 85.4895,92.3446 83,94.5C 82.3333,93.8333 81.6667,93.1667 81,92.5C 80.7258,82.808 80.2258,73.1414 79.5,63.5C 103.833,63.5 128.167,63.5 152.5,63.5 Z"/></g>
<g><path style="opacity:1" fill="#c0ccd5" d="M 74.5,65.5 C 75.1174,65.6107 75.6174,65.944 76,66.5C 76.4999,79.1623 76.6666,91.8289 76.5,104.5C 75.5,104.5 74.5,104.5 73.5,104.5C 73.2041,91.4506 73.5374,78.4506 74.5,65.5 Z"/></g>
<g><path style="opacity:1" fill="#dadfe4" d="M 144.5,69.5 C 140.714,67.2956 136.714,66.9622 132.5,68.5C 133.871,67.2132 135.705,66.5465 138,66.5C 139.833,66.8333 141.667,67.1667 143.5,67.5C 143.863,68.1835 144.196,68.8501 144.5,69.5 Z"/></g>
<g><path style="opacity:1" fill="#c3ccd5" d="M 144.5,69.5 C 147.681,74.2512 146.681,77.9178 141.5,80.5C 138.098,80.6576 134.764,80.3242 131.5,79.5C 127.4,75.5288 127.734,71.8621 132.5,68.5C 136.714,66.9622 140.714,67.2956 144.5,69.5 Z"/></g>
<g><path style="opacity:1" fill="#c2ccd5" d="M 133.5,92.5 C 135.027,92.573 136.027,91.9063 136.5,90.5C 136.833,90.5 137.167,90.5 137.5,90.5C 139.027,90.573 140.027,89.9063 140.5,88.5C 141.492,88.6716 142.158,88.3382 142.5,87.5C 143.583,87.4606 144.583,87.1272 145.5,86.5C 146.495,92.1278 146.829,97.7945 146.5,103.5C 125.833,103.5 105.167,103.5 84.5,103.5C 84.2493,100.091 84.5827,96.7577 85.5,93.5C 90.4137,87.9867 95.0804,82.32 99.5,76.5C 100.323,73.9277 101.989,72.761 104.5,73C 112.193,80.0283 119.859,87.0283 127.5,94C 129.689,94.322 131.689,93.822 133.5,92.5 Z"/></g>
<g><path style="opacity:1" fill="#d2dae1" d="M 131.5,79.5 C 134.764,80.3242 138.098,80.6576 141.5,80.5C 138.696,81.6378 135.696,81.8045 132.5,81C 131.944,80.6174 131.611,80.1174 131.5,79.5 Z"/></g>
<g><path style="opacity:1" fill="#c6ced5" d="M 160.5,53.5 C 162.167,53.5 163.833,53.5 165.5,53.5C 165.5,59.5 165.5,65.5 165.5,71.5C 165.83,87.0091 165.496,102.342 164.5,117.5C 160.167,117.5 155.833,117.5 151.5,117.5C 155.021,116.834 158.687,116.167 162.5,115.5C 161.263,114.719 160.263,113.719 159.5,112.5C 159.957,111.702 160.624,111.369 161.5,111.5C 162.83,104.867 163.497,97.8667 163.5,90.5C 163.497,83.1333 162.83,76.1333 161.5,69.5C 162.26,68.1067 162.926,66.6067 163.5,65C 162.308,61.5295 161.308,58.0295 160.5,54.5C 160.5,54.1667 160.5,53.8333 160.5,53.5 Z"/></g>
<g><path style="opacity:1" fill="#cfd6dc" d="M 140.5,88.5 C 140.027,89.9063 139.027,90.573 137.5,90.5C 137.973,89.0937 138.973,88.427 140.5,88.5 Z"/></g>
<g><path style="opacity:1" fill="#c0ccd5" d="M 161.5,69.5 C 162.83,76.1333 163.497,83.1333 163.5,90.5C 163.497,97.8667 162.83,104.867 161.5,111.5C 161.5,97.5 161.5,83.5 161.5,69.5 Z"/></g>
<g><path style="opacity:1" fill="#cfd7dc" d="M 136.5,90.5 C 136.027,91.9063 135.027,92.573 133.5,92.5C 133.973,91.0937 134.973,90.427 136.5,90.5 Z"/></g>
<g><path style="opacity:1" fill="#dee0e8" d="M 165.5,71.5 C 166.827,87.0051 166.827,102.672 165.5,118.5C 164.893,118.376 164.56,118.043 164.5,117.5C 165.496,102.342 165.83,87.0091 165.5,71.5 Z"/></g>
<g><path style="opacity:1" fill="#d3dbe1" d="M 145.5,104.5 C 124.993,104.83 104.66,104.497 84.5,103.5C 105.167,103.5 125.833,103.5 146.5,103.5C 146.829,97.7945 146.495,92.1278 145.5,86.5C 144.583,87.1272 143.583,87.4606 142.5,87.5C 143.635,85.7868 145.302,85.1201 147.5,85.5C 148.123,92.2547 147.456,98.588 145.5,104.5 Z"/></g>
<g><path style="opacity:1" fill="#dee4e9" d="M 78.5,62.5 C 103.167,62.5 127.833,62.5 152.5,62.5C 152.5,62.8333 152.5,63.1667 152.5,63.5C 128.167,63.5 103.833,63.5 79.5,63.5C 80.2258,73.1414 80.7258,82.808 81,92.5C 81.6667,93.1667 82.3333,93.8333 83,94.5C 85.4895,92.3446 87.1561,89.678 88,86.5C 91.0006,84.7719 93.3339,82.4385 95,79.5C 95.4828,78.552 95.6495,77.552 95.5,76.5C 96.8333,76.5 98.1667,76.5 99.5,76.5C 95.0804,82.32 90.4137,87.9867 85.5,93.5C 84.5827,96.7577 84.2493,100.091 84.5,103.5C 104.66,104.497 124.993,104.83 145.5,104.5C 145.082,105.222 144.416,105.722 143.5,106C 137.833,106.333 132.167,106.667 126.5,107C 132.348,107.173 138.015,107.673 143.5,108.5C 121.833,108.5 100.167,108.5 78.5,108.5C 78.5,93.1667 78.5,77.8333 78.5,62.5 Z"/></g>
<g><path style="opacity:1" fill="#c7cfd6" d="M 77.5,62.5 C 77.8333,62.5 78.1667,62.5 78.5,62.5C 78.5,77.8333 78.5,93.1667 78.5,108.5C 100.167,108.5 121.833,108.5 143.5,108.5C 146.5,108.5 149.5,108.5 152.5,108.5C 131.006,109.497 109.34,109.831 87.5,109.5C 83.8453,108.925 80.8453,109.925 78.5,112.5C 77.5152,95.9105 77.1819,79.2439 77.5,62.5 Z"/></g>
<g><path style="opacity:1" fill="#c0ccd4" d="M 87.5,109.5 C 103.672,110.315 120.005,110.982 136.5,111.5C 136.5,112.5 136.5,113.5 136.5,114.5C 131.156,114.666 125.823,114.499 120.5,114C 119.667,113.167 118.833,112.333 118,111.5C 107.01,112.849 95.8432,113.849 84.5,114.5C 80.5,114.167 76.5,113.833 72.5,113.5C 74.396,112.534 76.396,112.201 78.5,112.5C 80.8453,109.925 83.8453,108.925 87.5,109.5 Z"/></g>
</svg>
